<?xml version="1.0" encoding="utf-8"?>
<!-- Svg Vector Icons : http://www.onlinewebfonts.com/icon -->
<!DOCTYPE svg PUBLIC "-//W3C//DTD SVG 1.1//EN" "http://www.w3.org/Graphics/SVG/1.1/DTD/svg11.dtd">
<svg version="1.1" xmlns="http://www.w3.org/2000/svg" xmlns:xlink="http://www.w3.org/1999/xlink" x="0px" y="0px" viewBox="0 0 256 256" enable-background="new 0 0 256 256" xml:space="preserve">
<metadata> Svg Vector Icons : http://www.onlinewebfonts.com/icon </metadata>
<g><g><path stroke-width="2" fill-opacity="0" stroke="#000000"  d="M246,17.6c0-4.4-3.6-7.9-7.9-7.9H17.9c-4.3,0-7.9,3.5-7.9,7.9v220.9c0,4.4,3.6,7.9,7.9,7.9h220.2c4.4,0,7.9-3.6,7.9-7.9L246,17.6L246,17.6z M64.1,100.9c14.6,11,25.4,12.3,41.8,0c15.5-11.6,29.9-11.1,44.7,0c15.2,11.4,27.2,11.8,43,0c15.5-11.6,25.7-11.6,41.2,0l-5.1,6.7c-12.5-9.4-18.6-9.4-31,0c-18.6,13.9-34.5,13.9-53.1,0c-12.1-9.1-22.5-9.1-34.6,0c-18.4,13.8-33.5,13.8-51.9,0c-12.3-9.2-20.6-9.2-32.8,0l-5.1-6.7C36.1,89.7,48.6,89.2,64.1,100.9z M21.2,123.8c14.9-11.2,27.5-11.6,43,0c14.6,11,25.4,12.3,41.8,0c15.5-11.6,29.9-11.1,44.7,0c15.2,11.4,27.2,11.8,43,0c15.5-11.6,25.7-11.6,41.2,0l-5.1,6.7c-12.5-9.4-18.6-9.4-31,0c-18.6,13.9-34.5,13.9-53.1,0c-12.1-9.1-22.5-9.1-34.6,0c-18.4,13.8-33.5,13.8-51.9,0c-12.3-9.2-20.6-9.2-32.8,0L21.2,123.8z M229.7,153.4c-12.5-9.3-18.6-9.3-31,0c-18.6,13.9-34.5,14-53.1,0c-12.1-9.1-22.5-9.1-34.6,0c-18.4,13.8-33.5,13.8-51.9,0c-12.3-9.2-20.6-9.2-32.8,0l-5.1-6.7c14.9-11.2,27.5-11.6,43,0c14.6,11,25.4,12.3,41.8,0c15.5-11.6,29.9-11.1,44.7,0c15.2,11.4,27.2,11.9,43,0c15.5-11.6,25.7-11.6,41.2,0L229.7,153.4z"/></g></g>
</svg>